<?xml version="1.0" encoding="UTF-8"?>
<svg width="20px" height="20px" viewBox="0 0 20 20" version="1.1" xmlns="http://www.w3.org/2000/svg" xmlns:xlink="http://www.w3.org/1999/xlink">
    <!-- Generator: Sketch 45.1 (43504) - http://www.bohemiancoding.com/sketch -->
    <title>logo-icon-instagram</title>
    <desc>Created with Sketch.</desc>
    <defs></defs>
    <g id="Welcome" stroke="none" stroke-width="1" fill="none" fill-rule="evenodd">
        <path d="M17.6226714,0 L2.37732864,0 C1.06428825,0 0,1.06210621 0,2.37187355 L0,17.6281264 C0,18.9384393 1.06428825,20 2.37732864,20 L17.6226714,20 C18.9357118,20 20,18.9384393 20,17.6281264 L20,2.37187355 C20,1.06210621 18.9357118,0 17.6226714,0 L17.6226714,0 Z M14.3752557,3.30020783 C14.3752557,2.85824588 14.7334959,2.50006819 15.1748367,2.50006819 L17.5749764,2.50006819 C18.0170155,2.50006819 18.3752557,2.85824588 18.3752557,3.30020783 L18.3752557,5.69992855 C18.3752557,6.14119229 18.0170155,6.50006819 17.5749764,6.50006819 L15.1748367,6.50006819 C14.7334959,6.50006819 14.3752557,6.14119229 14.3752557,5.69992855 L14.3752557,3.30020783 L14.3752557,3.30020783 Z M10.0231841,6.18607315 C12.1473966,6.18607315 13.8695688,7.90442681 13.8695688,10.0231841 C13.8695688,12.142487 12.1473966,13.8608406 10.0231841,13.8608406 C7.89951722,13.8608406 6.17734501,12.142487 6.17734501,10.0231841 C6.17734501,7.90442681 7.89951722,6.18607315 10.0231841,6.18607315 L10.0231841,6.18607315 Z M18.1250852,17.4999318 C18.1250852,17.8452391 17.8452391,18.1250852 17.4999318,18.1250852 L2.50006819,18.1250852 C2.15476093,18.1250852 1.87491476,17.8452391 1.87491476,17.4999318 L1.87491476,8.12535799 L4.37498295,8.12535799 C4.04931402,8.5939503 3.93912118,9.46840139 3.93912118,10.0231841 C3.93912118,13.3698824 6.6688487,16.0930639 10.0231841,16.0930639 C13.3780651,16.0930639 16.1077926,13.3698824 16.1077926,10.0231841 C16.1077926,9.46840139 16.0286938,8.60704252 15.625017,8.12535799 L18.1250852,8.12535799 L18.1250852,17.4999318 L18.1250852,17.4999318 Z" id="logo-icon-instagram" fill="#FFFFFF"></path>
    </g>
</svg>