<?xml version="1.0" encoding="UTF-8"?>
<svg width="53px" height="25px" viewBox="0 0 53 25" version="1.1" xmlns="http://www.w3.org/2000/svg" xmlns:xlink="http://www.w3.org/1999/xlink">
    <!-- Generator: Sketch 45.1 (43504) - http://www.bohemiancoding.com/sketch -->
    <title>logo-icon-etsy</title>
    <desc>Created with Sketch.</desc>
    <defs></defs>
    <g id="Welcome" stroke="none" stroke-width="1" fill="none" fill-rule="evenodd">
        <path d="M5.81737353,8.96141975 L5.81737353,1.94799383 C5.81737353,1.68811728 5.84356176,1.53225309 6.28985294,1.53225309 L12.2983382,1.53225309 C13.34805,1.53225309 13.9252824,2.41558642 14.3452294,4.0779321 L14.6863,5.4029321 L15.7095118,5.4029321 C15.8929853,1.63657407 16.0502706,0 16.0502706,0 C16.0502706,0 13.4789912,0.285648148 11.9571118,0.285648148 L4.26961765,0.285648148 L0.149491176,0.155709877 L0.149491176,1.24675926 L1.54042941,1.50648148 C2.51126471,1.68842593 2.74695882,1.89598765 2.82630294,2.77947531 C2.82630294,2.77947531 2.90517941,5.37700617 2.90517941,9.6632716 C2.90517941,13.9489198 2.82630294,16.5208333 2.82630294,16.5208333 C2.82630294,17.3 2.51126471,17.5856481 1.54042941,17.7680556 L0.149491176,18.0279321 L0.149491176,19.1183642 L4.26961765,18.9887346 L11.1441853,18.9887346 C12.6922529,18.9887346 16.2869,19.1183642 16.2869,19.1183642 C16.3653088,18.1830247 16.8904765,13.9489198 16.9691971,13.4819444 L15.9983618,13.4819444 L14.9749941,15.7938272 C14.1614441,17.6117284 12.9809471,17.741821 11.6687294,17.741821 L7.75888824,17.741821 C6.44682647,17.741821 5.81706176,17.2222222 5.81706176,16.1054012 L5.81706176,10.182716 C5.81706176,10.182716 8.67703529,10.182716 9.67390294,10.2608025 C10.4087324,10.312963 10.8545559,10.520679 11.0910294,11.533642 L11.4060676,12.8844136 L12.5337206,12.8844136 L12.4553118,9.48117284 L12.6125971,6.05262346 L11.4846324,6.05262346 L11.1175294,7.55910494 C10.8810559,8.54614198 10.7239265,8.72839506 9.70040294,8.83194444 C8.54609412,8.96219136 5.81690588,8.93611111 5.81690588,8.93611111 L5.81690588,8.96188272 L5.81737353,8.96188272 L5.81737353,8.96141975 Z M21.3769265,2.67546296 C21.0095118,4.28595679 20.6420971,5.53271605 19.3563794,6.36404321 C18.5693294,6.88333333 17.7819676,7.06496914 17.4675529,7.09104938 L17.4675529,8.07808642 L19.8026706,8.07808642 L19.8026706,16.0526235 C19.8026706,18.2868827 21.2985176,19.3780864 23.2924088,19.3780864 C24.8406324,19.3780864 26.4409206,18.7287037 26.9921206,17.3776235 L26.4409206,16.6762346 C26.1784147,17.1180556 25.3393,17.767284 24.2895882,17.767284 C23.1352794,17.767284 22.5055147,16.9878086 22.5055147,15.0140432 L22.5055147,7.97469136 L26.3891676,8.26064815 L26.5988294,6.49382716 L22.5056706,6.64984568 L22.5056706,2.70123457 L21.3769265,2.67546296 L21.3769265,2.67546296 Z M29.6686206,14.9415123 L28.6715971,14.9674383 C28.7239735,15.5387346 28.7504735,16.266358 28.7504735,16.9416667 C28.7504735,17.6430556 28.7242853,18.2924383 28.6715971,18.6040123 C28.6715971,18.6040123 30.6658,19.3307099 32.6861912,19.3307099 C35.4150676,19.3307099 37.5930559,18.0319444 37.5930559,15.4862654 C37.5930559,11.1228395 30.9808382,11.7723765 30.9808382,8.83657407 C30.9808382,7.61589506 32.0827706,7.14814815 33.2897676,7.14814815 C34.2344147,7.14814815 35.0214647,7.48580247 35.1789059,7.97978395 L35.8350147,9.9279321 L36.8060059,9.87608025 C36.8848824,8.83688272 36.9371029,7.64197531 37.0947,6.68101852 C36.2548059,6.31728395 34.4966088,6.10910494 33.3954559,6.10910494 C30.8233971,6.10910494 28.7509412,7.22623457 28.7509412,9.72006173 C28.7509412,14.0578704 35.2054059,13.1746914 35.2054059,16.370216 C35.2054059,17.5126543 34.4966088,18.3180556 32.8964765,18.3180556 C31.4274412,18.3180556 30.6924559,17.5649691 30.4043853,16.8112654 L29.6686206,14.9415123 L29.6686206,14.9415123 Z M45.4833529,17.9424383 C43.9642794,22.1432099 42.1047588,23.2314815 40.4287118,23.2314815 C39.7211618,23.2314815 39.3810265,22.9200617 39.2758059,22.4282407 L38.8829824,20.4052469 L37.7827647,20.4570988 C37.5732588,21.65 37.3637529,22.9728395 37.0759941,24.0615741 C37.7308559,24.5535494 38.8302941,24.8134259 39.6949735,24.8134259 C41.5025853,24.8134259 44.25235,24.5796296 46.7662647,18.6682099 L50.98335,8.81558642 C51.3241088,8.01157407 51.4545824,7.9337963 52.4498912,7.54459877 L53,7.33765432 L53,6.43009259 L50.51165,6.55972222 L47.8402941,6.43009259 L47.8402941,7.33765432 L48.5208765,7.54459877 C49.2016147,7.75246914 49.5164971,8.01157407 49.5164971,8.47839506 C49.5164971,8.71157407 49.4376206,8.94506173 49.3063676,9.30771605 C48.9135441,10.2936728 46.4777265,16.1532407 45.8236441,17.3981481 L46.4775706,17.1643519 C45.3249765,14.3382716 43.5709882,9.61882716 43.3087941,8.81574074 C43.2564176,8.66003086 43.2302294,8.53040123 43.2302294,8.40015432 C43.2302294,7.98549383 43.5183,7.64830247 44.1469735,7.51882716 L45.0113412,7.33780864 L45.0113412,6.43024691 L41.4227735,6.55987654 L38.5681,6.43024691 L38.5681,7.33780864 L39.0396441,7.49320988 C39.69435,7.70061728 39.8516353,7.88225309 40.2444588,8.78966049 C42.4176147,13.716358 43.4397353,16.4125 44.8272441,19.9391975 L45.4833529,17.9424383 L45.4833529,17.9424383 Z" id="logo-icon-etsy" fill="#FFFFFF" fill-rule="nonzero"></path>
    </g>
</svg>
